<svg width="512" height="512" fill="none" xmlns="http://www.w3.org/2000/svg">
<style>
	.logo-back { fill: #084796 }
	.logo-front { fill: #D3E6FD }
	@media (prefers-color-scheme: dark) {
		.logo-back { fill: #D3E6FD }
		.logo-front { fill: #084796 }
	}
</style>
<path class="logo-back" d="M452.428 102.842c21.028 12.384 34.018 34.92 34.212 59.352l.745 93.806-.745 93.806c-.194 24.432-13.184 46.967-34.212 59.352l-80.736 47.549-81.48 46.257a69.285 69.285 0 0 1-68.424 0l-81.48-46.257-80.736-47.549c-21.029-12.385-34.018-34.92-34.212-59.352L24.615 256l.745-93.806c.194-24.432 13.184-46.968 34.212-59.352l80.736-47.549 81.48-46.257a69.285 69.285 0 0 1 68.424 0l81.48 46.257 80.736 47.549z"/><path class="logo-front" d="M140.608 251.53c-13.019-7.681-21.887-19.386-26.606-35.114-4.719-15.728-2.914-30.964 5.415-45.706 5.484-9.708 12.749-17.167 21.792-22.379 9.395-5.004 19.182-7.38 29.36-7.128 10.179.253 19.491 2.87 27.935 7.852 13.019 7.681 21.888 19.386 26.607 35.114 4.718 15.728 2.913 30.963-5.415 45.705-5.485 9.708-12.925 17.064-22.32 22.068-9.044 5.212-18.655 7.692-28.833 7.439-10.179-.252-19.49-2.869-27.935-7.851zm87.21 151.963c-23.676-13.968-32.479-44.334-19.962-68.858l83.252-163.106c16.044-28.398 52.098-38.513 80.168-21.952 28.07 16.561 37.525 53.526 21.481 81.924L296.155 386.73c-14.525 23.34-44.66 30.732-68.337 16.763z"/></svg>
