<svg height="700pt" preserveAspectRatio="xMidYMid meet" viewBox="0 0 700 700" width="700pt" xmlns="http://www.w3.org/2000/svg"><g transform="matrix(.1 0 0 -.1 0 700)"><path d="m58 5314c-31-16-52-65-45-103 4-16 24-60 47-98 22-37 45-75 49-83 5-8 56-94 114-190 356-599 742-1248 751-1265 6-11 45-76 85-143l75-124 1-561c0-606-1-590 53-618 36-20 287-19 326 1 57 28 56 18 56 621v555l152 255c83 140 157 265 165 279s22 39 32 55c68 114 302 506 317 532 41 70 166 280 306 515 81 136 150 263 153 281 6 29 2 40-23 68l-30 34-139 1c-76 1-150-3-165-8-41-14-61-43-222-310-81-134-152-250-157-258-27-45-284-470-299-495-9-16-74-124-144-239-69-115-126-213-126-218 0-4-4-8-9-8s-13-9-16-20c-6-20-7-20-24 2-10 13-27 39-37 58-18 33-92 155-139 230-12 19-127 208-255 420-445 735-493 812-519 828-33 22-293 27-333 6z"/><path d="m3188 4529c-238-42-397-126-549-286-139-147-227-327-274-556-40-200-40-546 0-756 75-387 315-689 632-797 144-49 219-59 428-58 223 1 358 31 535 118 122 60 195 110 280 196 111 110 173 234 150 296-18 47-52 57-178 57-213-1-179 13-302-118-95-100-225-179-327-200-328-66-559 31-714 300-73 126-119 303-110 425 1 14 91 16 815 16 758 0 815 1 840 18 15 9 32 29 37 44 16 40 4 364-16 432-3 8-7 32-10 52-36 229-187 489-365 630-124 98-298 169-475 193-103 15-298 12-397-6zm384-334c163-42 308-160 381-309 29-60 63-156 71-206 12-68 18-200 10-201-13 0-1224 0-1255 0-23 1-26 5-24 29 2 15 6 59 9 98 28 314 236 563 501 598 27 4 51 8 52 10 9 9 201-6 255-19z"/><path d="m5865 4539c-22-4-56-9-75-12-57-8-150-37-220-70-94-43-172-99-250-178-37-38-69-69-72-69-2 0-3 48-3 106 0 117-11 154-51 173-30 14-262 15-298 1-59-22-56 75-56-1615 0-1396 2-1550 16-1581 9-18 26-37 37-41 42-13 280-11 309 4 59 29 58 22 58 615 1 485 2 541 16 523 58-78 186-185 266-223 172-82 253-97 488-96 143 1 178 5 261 27 256 67 428 208 552 452 110 215 142 385 142 765 0 273-9 351-56 525-6 22-13 50-16 63-3 12-9 25-14 28s-9 12-9 20c0 23-65 149-116 224-132 195-317 311-562 351-81 13-292 18-347 8zm244-373c213-57 351-209 415-458 14-51 28-113 31-138 11-69 14-441 5-491-4-24-11-66-15-93-3-27-10-57-16-68-5-10-7-18-4-18 5 0-25-82-57-150-84-183-232-289-438-316-61-7-191-7-230 1-14 3-37 7-53 10-148 28-298 141-382 290-34 60-89 195-80 195 2 0 0 12-6 26-19 52-30 342-19 544 13 256 148 509 323 608 63 36 129 59 194 68 26 3 50 8 52 10 11 10 224-5 280-20z"/></g></svg>